<svg xmlns="http://www.w3.org/2000/svg" width="54" height="54" viewBox="0 0 54 54">
  <path fill="#007EB1" d="M48.438375,0.75 C51.091375,0.75 53.25,2.908625 53.25,5.561625 L53.25,48.438375 C53.25,51.091375 51.091375,53.25 48.438375,53.25 L41,53.25 L41,52.375 C41,50.92775 39.82225,49.75 38.375,49.75 C36.92775,49.75 35.75,50.92775 35.75,52.375 L35.75,53.25 L5.561625,53.25 C2.908625,53.25 0.75,51.091375 0.75,48.438375 L0.75,13 L4.25,13 L4.25,11.25 L0.75,11.25 L0.75,5.561625 C0.75,2.908625 2.908625,0.75 5.561625,0.75 L35.75,0.75 L35.75,1.625 C35.75,3.07225 36.92775,4.25 38.375,4.25 C39.82225,4.25 41,3.07225 41,1.625 L41,0.75 L48.438375,0.75 Z M5.125,6 C4.64175084,6 4.25,5.60824916 4.25,5.125 C4.25,4.64175084 4.64175084,4.25 5.125,4.25 C5.60824916,4.25 6,4.64175084 6,5.125 C6,5.60824916 5.60824916,6 5.125,6 Z M48.875,6 C48.3917508,6 48,5.60824916 48,5.125 C48,4.64175084 48.3917508,4.25 48.875,4.25 C49.3582492,4.25 49.75,4.64175084 49.75,5.125 C49.75,5.60824916 49.3582492,6 48.875,6 Z M5.125,49.75 C4.64175084,49.75 4.25,49.3582492 4.25,48.875 C4.25,48.3917508 4.64175084,48 5.125,48 C5.60824916,48 6,48.3917508 6,48.875 C6,49.3582492 5.60824916,49.75 5.125,49.75 Z M10.375,50.625 C9.89175084,50.625 9.5,50.2332492 9.5,49.75 C9.5,49.2667508 9.89175084,48.875 10.375,48.875 C10.8582492,48.875 11.25,49.2667508 11.25,49.75 C11.25,50.2332492 10.8582492,50.625 10.375,50.625 Z M13.875,50.625 C13.3917508,50.625 13,50.2332492 13,49.75 C13,49.2667508 13.3917508,48.875 13.875,48.875 C14.3582492,48.875 14.75,49.2667508 14.75,49.75 C14.75,50.2332492 14.3582492,50.625 13.875,50.625 Z M17.375,50.625 C16.8917508,50.625 16.5,50.2332492 16.5,49.75 C16.5,49.2667508 16.8917508,48.875 17.375,48.875 C17.8582492,48.875 18.25,49.2667508 18.25,49.75 C18.25,50.2332492 17.8582492,50.625 17.375,50.625 Z M20.875,50.625 C20.3917508,50.625 20,50.2332492 20,49.75 C20,49.2667508 20.3917508,48.875 20.875,48.875 C21.3582492,48.875 21.75,49.2667508 21.75,49.75 C21.75,50.2332492 21.3582492,50.625 20.875,50.625 Z M48.875,49.75 C48.3917508,49.75 48,49.3582492 48,48.875 C48,48.3917508 48.3917508,48 48.875,48 C49.3582492,48 49.75,48.3917508 49.75,48.875 C49.75,49.3582492 49.3582492,49.75 48.875,49.75 Z M45.375,22.625 L43.625,22.625 L43.625,24.375 L45.375,24.375 C45.858,24.375 46.25,24.766125 46.25,25.25 C46.25,25.733875 45.858,26.125 45.375,26.125 L43.625,26.125 L43.625,27.875 L45.375,27.875 C45.858,27.875 46.25,28.266125 46.25,28.75 C46.25,29.233875 45.858,29.625 45.375,29.625 L43.625,29.625 L43.625,31.375 L45.375,31.375 C45.858,31.375 46.25,31.766125 46.25,32.25 C46.25,32.733875 45.858,33.125 45.375,33.125 L43.625,33.125 L43.625,34.875 L40.125,34.875 L40.125,36.312625 C40.125,38.414375 38.414375,40.125 36.312625,40.125 L34.875,40.125 L34.875,43.625 L33.125,43.625 L33.125,45.375 C33.125,45.858875 32.733,46.25 32.25,46.25 C31.767,46.25 31.375,45.858875 31.375,45.375 L31.375,43.625 L29.625,43.625 L29.625,45.375 C29.625,45.858875 29.233,46.25 28.75,46.25 C28.267,46.25 27.875,45.858875 27.875,45.375 L27.875,43.625 L26.125,43.625 L26.125,45.375 C26.125,45.858875 25.733,46.25 25.25,46.25 C24.767,46.25 24.375,45.858875 24.375,45.375 L24.375,43.625 L22.625,43.625 L22.625,45.375 C22.625,45.858875 22.233,46.25 21.75,46.25 C21.267,46.25 20.875,45.858875 20.875,45.375 L20.875,43.625 L19.125,43.625 L19.125,40.125 L17.687375,40.125 C15.585625,40.125 13.875,38.414375 13.875,36.312625 L13.875,34.875 L10.375,34.875 L10.375,33.125 L8.625,33.125 C8.142,33.125 7.75,32.733875 7.75,32.25 C7.75,31.766125 8.142,31.375 8.625,31.375 L10.375,31.375 L10.375,29.625 L8.625,29.625 C8.142,29.625 7.75,29.233875 7.75,28.75 C7.75,28.266125 8.142,27.875 8.625,27.875 L10.375,27.875 L10.375,26.125 L8.625,26.125 C8.142,26.125 7.75,25.733875 7.75,25.25 C7.75,24.766125 8.142,24.375 8.625,24.375 L10.375,24.375 L10.375,22.625 L8.625,22.625 C8.142,22.625 7.75,22.233875 7.75,21.75 C7.75,21.266125 8.142,20.875 8.625,20.875 L10.375,20.875 L10.375,19.125 L13.875,19.125 L13.875,17.687375 C13.875,15.585625 15.585625,13.875 17.687375,13.875 L19.125,13.875 L19.125,10.375 L20.875,10.375 L20.875,8.625 C20.875,8.141125 21.267,7.75 21.75,7.75 C22.233,7.75 22.625,8.141125 22.625,8.625 L22.625,10.375 L24.375,10.375 L24.375,8.625 C24.375,8.141125 24.767,7.75 25.25,7.75 C25.733,7.75 26.125,8.141125 26.125,8.625 L26.125,10.375 L27.875,10.375 L27.875,8.625 C27.875,8.141125 28.267,7.75 28.75,7.75 C29.233,7.75 29.625,8.141125 29.625,8.625 L29.625,10.375 L31.375,10.375 L31.375,8.625 C31.375,8.141125 31.767,7.75 32.25,7.75 C32.733,7.75 33.125,8.141125 33.125,8.625 L33.125,10.375 L34.875,10.375 L34.875,13.875 L36.312625,13.875 C38.414375,13.875 40.125,15.585625 40.125,17.687375 L40.125,19.125 L43.625,19.125 L43.625,20.875 L45.375,20.875 C45.858,20.875 46.25,21.266125 46.25,21.75 C46.25,22.233875 45.858,22.625 45.375,22.625 Z M13.875,33.125 L13.875,20.875 L12.125,20.875 L12.125,33.125 L13.875,33.125 Z M20.875,12.125 L20.875,13.875 L33.125,13.875 L33.125,12.125 L20.875,12.125 Z M33.125,41.875 L33.125,40.125 L20.875,40.125 L20.875,41.875 L33.125,41.875 Z M34,35.75 C33.5167508,35.75 33.125,35.3582492 33.125,34.875 C33.125,34.3917508 33.5167508,34 34,34 C34.4832492,34 34.875,34.3917508 34.875,34.875 C34.875,35.3582492 34.4832492,35.75 34,35.75 Z M30.5,35.75 C30.0167508,35.75 29.625,35.3582492 29.625,34.875 C29.625,34.3917508 30.0167508,34 30.5,34 C30.9832492,34 31.375,34.3917508 31.375,34.875 C31.375,35.3582492 30.9832492,35.75 30.5,35.75 Z M32.25,33.125 C31.7667508,33.125 31.375,32.7332492 31.375,32.25 C31.375,31.7667508 31.7667508,31.375 32.25,31.375 C32.7332492,31.375 33.125,31.7667508 33.125,32.25 C33.125,32.7332492 32.7332492,33.125 32.25,33.125 Z M27,35.75 C26.5167508,35.75 26.125,35.3582492 26.125,34.875 C26.125,34.3917508 26.5167508,34 27,34 C27.4832492,34 27.875,34.3917508 27.875,34.875 C27.875,35.3582492 27.4832492,35.75 27,35.75 Z M23.5,35.75 C23.0167508,35.75 22.625,35.3582492 22.625,34.875 C22.625,34.3917508 23.0167508,34 23.5,34 C23.9832492,34 24.375,34.3917508 24.375,34.875 C24.375,35.3582492 23.9832492,35.75 23.5,35.75 Z M28.75,33.125 C28.2667508,33.125 27.875,32.7332492 27.875,32.25 C27.875,31.7667508 28.2667508,31.375 28.75,31.375 C29.2332492,31.375 29.625,31.7667508 29.625,32.25 C29.625,32.7332492 29.2332492,33.125 28.75,33.125 Z M25.25,33.125 C24.7667508,33.125 24.375,32.7332492 24.375,32.25 C24.375,31.7667508 24.7667508,31.375 25.25,31.375 C25.7332492,31.375 26.125,31.7667508 26.125,32.25 C26.125,32.7332492 25.7332492,33.125 25.25,33.125 Z M20,35.75 C19.5167508,35.75 19.125,35.3582492 19.125,34.875 C19.125,34.3917508 19.5167508,34 20,34 C20.4832492,34 20.875,34.3917508 20.875,34.875 C20.875,35.3582492 20.4832492,35.75 20,35.75 Z M21.75,33.125 C21.2667508,33.125 20.875,32.7332492 20.875,32.25 C20.875,31.7667508 21.2667508,31.375 21.75,31.375 C22.2332492,31.375 22.625,31.7667508 22.625,32.25 C22.625,32.7332492 22.2332492,33.125 21.75,33.125 Z M34,30.5 C33.5167508,30.5 33.125,30.1082492 33.125,29.625 C33.125,29.1417508 33.5167508,28.75 34,28.75 C34.4832492,28.75 34.875,29.1417508 34.875,29.625 C34.875,30.1082492 34.4832492,30.5 34,30.5 Z M30.5,30.5 C30.0167508,30.5 29.625,30.1082492 29.625,29.625 C29.625,29.1417508 30.0167508,28.75 30.5,28.75 C30.9832492,28.75 31.375,29.1417508 31.375,29.625 C31.375,30.1082492 30.9832492,30.5 30.5,30.5 Z M32.25,27.875 C31.7667508,27.875 31.375,27.4832492 31.375,27 C31.375,26.5167508 31.7667508,26.125 32.25,26.125 C32.7332492,26.125 33.125,26.5167508 33.125,27 C33.125,27.4832492 32.7332492,27.875 32.25,27.875 Z M27,30.5 C26.5167508,30.5 26.125,30.1082492 26.125,29.625 C26.125,29.1417508 26.5167508,28.75 27,28.75 C27.4832492,28.75 27.875,29.1417508 27.875,29.625 C27.875,30.1082492 27.4832492,30.5 27,30.5 Z M23.5,30.5 C23.0167508,30.5 22.625,30.1082492 22.625,29.625 C22.625,29.1417508 23.0167508,28.75 23.5,28.75 C23.9832492,28.75 24.375,29.1417508 24.375,29.625 C24.375,30.1082492 23.9832492,30.5 23.5,30.5 Z M28.75,27.875 C28.2667508,27.875 27.875,27.4832492 27.875,27 C27.875,26.5167508 28.2667508,26.125 28.75,26.125 C29.2332492,26.125 29.625,26.5167508 29.625,27 C29.625,27.4832492 29.2332492,27.875 28.75,27.875 Z M25.25,27.875 C24.7667508,27.875 24.375,27.4832492 24.375,27 C24.375,26.5167508 24.7667508,26.125 25.25,26.125 C25.7332492,26.125 26.125,26.5167508 26.125,27 C26.125,27.4832492 25.7332492,27.875 25.25,27.875 Z M20,30.5 C19.5167508,30.5 19.125,30.1082492 19.125,29.625 C19.125,29.1417508 19.5167508,28.75 20,28.75 C20.4832492,28.75 20.875,29.1417508 20.875,29.625 C20.875,30.1082492 20.4832492,30.5 20,30.5 Z M21.75,27.875 C21.2667508,27.875 20.875,27.4832492 20.875,27 C20.875,26.5167508 21.2667508,26.125 21.75,26.125 C22.2332492,26.125 22.625,26.5167508 22.625,27 C22.625,27.4832492 22.2332492,27.875 21.75,27.875 Z M34,25.25 C33.5167508,25.25 33.125,24.8582492 33.125,24.375 C33.125,23.8917508 33.5167508,23.5 34,23.5 C34.4832492,23.5 34.875,23.8917508 34.875,24.375 C34.875,24.8582492 34.4832492,25.25 34,25.25 Z M30.5,25.25 C30.0167508,25.25 29.625,24.8582492 29.625,24.375 C29.625,23.8917508 30.0167508,23.5 30.5,23.5 C30.9832492,23.5 31.375,23.8917508 31.375,24.375 C31.375,24.8582492 30.9832492,25.25 30.5,25.25 Z M32.25,22.625 C31.7667508,22.625 31.375,22.2332492 31.375,21.75 C31.375,21.2667508 31.7667508,20.875 32.25,20.875 C32.7332492,20.875 33.125,21.2667508 33.125,21.75 C33.125,22.2332492 32.7332492,22.625 32.25,22.625 Z M27,25.25 C26.5167508,25.25 26.125,24.8582492 26.125,24.375 C26.125,23.8917508 26.5167508,23.5 27,23.5 C27.4832492,23.5 27.875,23.8917508 27.875,24.375 C27.875,24.8582492 27.4832492,25.25 27,25.25 Z M23.5,25.25 C23.0167508,25.25 22.625,24.8582492 22.625,24.375 C22.625,23.8917508 23.0167508,23.5 23.5,23.5 C23.9832492,23.5 24.375,23.8917508 24.375,24.375 C24.375,24.8582492 23.9832492,25.25 23.5,25.25 Z M28.75,22.625 C28.2667508,22.625 27.875,22.2332492 27.875,21.75 C27.875,21.2667508 28.2667508,20.875 28.75,20.875 C29.2332492,20.875 29.625,21.2667508 29.625,21.75 C29.625,22.2332492 29.2332492,22.625 28.75,22.625 Z M25.25,22.625 C24.7667508,22.625 24.375,22.2332492 24.375,21.75 C24.375,21.2667508 24.7667508,20.875 25.25,20.875 C25.7332492,20.875 26.125,21.2667508 26.125,21.75 C26.125,22.2332492 25.7332492,22.625 25.25,22.625 Z M20,25.25 C19.5167508,25.25 19.125,24.8582492 19.125,24.375 C19.125,23.8917508 19.5167508,23.5 20,23.5 C20.4832492,23.5 20.875,23.8917508 20.875,24.375 C20.875,24.8582492 20.4832492,25.25 20,25.25 Z M21.75,22.625 C21.2667508,22.625 20.875,22.2332492 20.875,21.75 C20.875,21.2667508 21.2667508,20.875 21.75,20.875 C22.2332492,20.875 22.625,21.2667508 22.625,21.75 C22.625,22.2332492 22.2332492,22.625 21.75,22.625 Z M34,20 C33.5167508,20 33.125,19.6082492 33.125,19.125 C33.125,18.6417508 33.5167508,18.25 34,18.25 C34.4832492,18.25 34.875,18.6417508 34.875,19.125 C34.875,19.6082492 34.4832492,20 34,20 Z M30.5,20 C30.0167508,20 29.625,19.6082492 29.625,19.125 C29.625,18.6417508 30.0167508,18.25 30.5,18.25 C30.9832492,18.25 31.375,18.6417508 31.375,19.125 C31.375,19.6082492 30.9832492,20 30.5,20 Z M27,20 C26.5167508,20 26.125,19.6082492 26.125,19.125 C26.125,18.6417508 26.5167508,18.25 27,18.25 C27.4832492,18.25 27.875,18.6417508 27.875,19.125 C27.875,19.6082492 27.4832492,20 27,20 Z M23.5,20 C23.0167508,20 22.625,19.6082492 22.625,19.125 C22.625,18.6417508 23.0167508,18.25 23.5,18.25 C23.9832492,18.25 24.375,18.6417508 24.375,19.125 C24.375,19.6082492 23.9832492,20 23.5,20 Z M20,20 C19.5167508,20 19.125,19.6082492 19.125,19.125 C19.125,18.6417508 19.5167508,18.25 20,18.25 C20.4832492,18.25 20.875,18.6417508 20.875,19.125 C20.875,19.6082492 20.4832492,20 20,20 Z M38.375,19.125 L38.375,17.687375 C38.375,16.55075 37.450125,15.625 36.312625,15.625 L34.875,15.625 L19.125,15.625 L17.687375,15.625 C16.55075,15.625 15.625,16.549875 15.625,17.687375 L15.625,19.125 L15.625,34.875 L15.625,36.312625 C15.625,37.44925 16.55075,38.375 17.687375,38.375 L19.125,38.375 L34.875,38.375 L36.312625,38.375 C37.44925,38.375 38.375,37.450125 38.375,36.312625 L38.375,34.875 L38.375,19.125 Z M41.875,33.125 L41.875,20.875 L40.125,20.875 L40.125,33.125 L41.875,33.125 Z M4.25,34 C3.76675084,34 3.375,33.6082492 3.375,33.125 C3.375,32.6417508 3.76675084,32.25 4.25,32.25 C4.73324916,32.25 5.125,32.6417508 5.125,33.125 C5.125,33.6082492 4.73324916,34 4.25,34 Z M4.25,37.5 C3.76675084,37.5 3.375,37.1082492 3.375,36.625 C3.375,36.1417508 3.76675084,35.75 4.25,35.75 C4.73324916,35.75 5.125,36.1417508 5.125,36.625 C5.125,37.1082492 4.73324916,37.5 4.25,37.5 Z M4.25,41 C3.76675084,41 3.375,40.6082492 3.375,40.125 C3.375,39.6417508 3.76675084,39.25 4.25,39.25 C4.73324916,39.25 5.125,39.6417508 5.125,40.125 C5.125,40.6082492 4.73324916,41 4.25,41 Z M4.25,44.5 C3.76675084,44.5 3.375,44.1082492 3.375,43.625 C3.375,43.1417508 3.76675084,42.75 4.25,42.75 C4.73324916,42.75 5.125,43.1417508 5.125,43.625 C5.125,44.1082492 4.73324916,44.5 4.25,44.5 Z M51.5,15.625 L51.5,5.561625 C51.5,3.872875 50.127125,2.5 48.438375,2.5 L42.661625,2.5 C42.255625,4.494125 40.488125,6 38.375,6 C36.261875,6 34.494375,4.494125 34.088375,2.5 L5.561625,2.5 C3.872875,2.5 2.5,3.872875 2.5,5.561625 L2.5,9.5 L6,9.5 L6,14.75 L2.5,14.75 L2.5,48.438375 C2.5,50.127125 3.872875,51.5 5.561625,51.5 L34.088375,51.5 C34.494375,49.505875 36.26275,48 38.375,48 C40.48725,48 42.255625,49.505875 42.661625,51.5 L48.438375,51.5 C50.127125,51.5 51.5,50.127125 51.5,48.438375 L51.5,38.375 L49.75,38.375 C49.267,38.375 48.875,37.983875 48.875,37.5 C48.875,37.016125 49.267,36.625 49.75,36.625 L51.5,36.625 L51.5,35.75 L49.75,35.75 C49.267,35.75 48.875,35.358875 48.875,34.875 C48.875,34.391125 49.267,34 49.75,34 L51.5,34 L51.5,33.125 L49.75,33.125 C49.267,33.125 48.875,32.733875 48.875,32.25 C48.875,31.766125 49.267,31.375 49.75,31.375 L51.5,31.375 L51.5,30.5 L49.75,30.5 C49.267,30.5 48.875,30.108875 48.875,29.625 C48.875,29.141125 49.267,28.75 49.75,28.75 L51.5,28.75 L51.5,27.875 L49.75,27.875 C49.267,27.875 48.875,27.483875 48.875,27 C48.875,26.516125 49.267,26.125 49.75,26.125 L51.5,26.125 L51.5,25.25 L49.75,25.25 C49.267,25.25 48.875,24.858875 48.875,24.375 C48.875,23.891125 49.267,23.5 49.75,23.5 L51.5,23.5 L51.5,22.625 L49.75,22.625 C49.267,22.625 48.875,22.233875 48.875,21.75 C48.875,21.266125 49.267,20.875 49.75,20.875 L51.5,20.875 L51.5,20 L49.75,20 C49.267,20 48.875,19.608875 48.875,19.125 C48.875,18.641125 49.267,18.25 49.75,18.25 L51.5,18.25 L51.5,17.375 L49.75,17.375 C49.267,17.375 48.875,16.983875 48.875,16.5 C48.875,16.016125 49.267,15.625 49.75,15.625 L51.5,15.625 Z"/>
</svg>
