<svg xmlns="http://www.w3.org/2000/svg" width="54" height="51" viewBox="0 0 54 51">
  <path fill="#007EB1" d="M50.3156339,26.3909087 L50.2770792,26.3909087 L50.2770792,17.9751837 L50.2770792,11.2845586 C50.2770792,10.6560338 49.7534111,10.1463679 49.1076189,10.1463679 L42.9496234,10.1463679 L38.3478664,1.29113467 C38.2079003,1.02188097 37.9636518,0.817595455 37.6688514,0.723486397 C37.3741536,0.629277541 37.0531031,0.652929553 36.7763497,0.789153163 L17.7678262,10.1462681 L5.48628855,10.1462681 C2.92895933,10.1462681 0.853154498,12.0907229 0.754511728,14.5755813 C0.754409188,14.579174 0.754614267,14.5829663 0.754511728,14.5867586 C0.754409188,14.5894532 0.753896492,14.5922475 0.753793953,14.5950418 C0.751845707,14.6487329 0.75,14.7022244 0.75,14.7560152 L0.75,45.6403527 C0.75,48.1820957 2.87471606,50.25 5.48628855,50.25 L49.1075163,50.25 C49.7533086,50.25 50.2769766,49.7403341 50.2769766,49.1118093 L50.2769766,40.3441983 L50.3155314,40.3441983 C51.9336009,40.3441983 53.25,39.062898 53.25,37.488193 L53.25,29.2470138 C53.2501025,27.672209 51.9336009,26.3909087 50.3156339,26.3909087 Z M47.938056,12.4227493 L47.938056,16.8368932 L46.4264222,16.8368932 L44.1325164,12.4227493 L47.938056,12.4227493 L47.938056,12.4227493 Z M18.5746051,12.3003975 C18.5749127,12.3002977 18.5753229,12.3000981 18.5756305,12.2997987 L36.7882442,3.33428923 L41.1863583,11.7975178 C41.1864608,11.7977174 41.1865634,11.7981166 41.1866659,11.7983162 L43.805211,16.836993 L41.5384781,16.836993 C41.5234048,16.7977726 41.506896,16.758652 41.4871059,16.7206291 L38.4770659,10.9283813 C38.2415332,10.4753005 37.7260683,10.2286011 37.213372,10.3242071 L36.8552024,10.3909716 C35.4839448,10.6475511 34.0736198,10.0409817 33.3448732,8.88323075 L33.111904,8.51318156 C32.7937247,8.00780694 32.1305007,7.82467849 31.5869401,8.09213584 L13.8225255,16.8367934 L9.35868381,16.8367934 L18.5746051,12.3003975 Z M38.9264955,16.836993 L19.0048599,16.836993 L31.7128583,10.5812855 C32.9095941,12.0742563 34.8350763,12.8823168 36.7763497,12.6994878 L38.9264955,16.836993 Z M5.48628855,12.4227493 L13.143408,12.4227493 L4.55236094,16.6517688 C3.89170047,16.3778247 3.38648952,15.8216531 3.18541003,15.1517124 C3.18356432,15.1451257 3.181411,15.1386389 3.17956529,15.1321521 C3.16685042,15.0881414 3.15536603,15.0435319 3.14531718,14.9985232 C3.13680642,14.9597019 3.12952613,14.9202819 3.12296362,14.8807621 C3.11773412,14.8497251 3.11281223,14.8184885 3.1088132,14.7870522 C3.10204561,14.7322634 3.09722626,14.6769756 3.09435516,14.621089 C3.16582503,13.3845977 4.20680363,12.4227493 5.48628855,12.4227493 Z M47.938056,47.9736186 L5.48628855,47.9736186 C4.16435237,47.9736186 3.08892058,46.9269423 3.08892058,45.6403527 L3.08892058,45.1106275 L38.823341,45.1106275 C39.4691332,45.1106275 39.9928013,44.6009616 39.9928013,43.9724368 C39.9928013,43.343912 39.4691332,42.8342461 38.823341,42.8342461 L3.08892058,42.8342461 L3.08892058,18.4859474 C3.55485899,18.7509098 4.07257973,18.9382297 4.62331811,19.0358317 C4.62639429,19.0364305 4.62936793,19.0369295 4.63244411,19.0375283 C4.63377712,19.0377279 4.63500759,19.0377279 4.6363406,19.0380273 C4.64720976,19.0399234 4.65807892,19.0418196 4.66894808,19.0437157 C4.66946078,19.0437157 4.6697684,19.0439153 4.67028109,19.0439153 C4.67920201,19.0454123 4.68812293,19.0464103 4.69704384,19.0479072 C4.76595023,19.0590845 4.83506169,19.0695633 4.90499347,19.0777467 C4.91883627,19.0794432 4.93247399,19.0811398 4.94641933,19.0826368 C4.94652187,19.0826368 4.94672695,19.0827366 4.94693203,19.0827366 C4.97933443,19.0863293 5.012147,19.088425 5.04465194,19.0914189 C5.09264032,19.0957102 5.14021854,19.1008997 5.18861707,19.103694 C5.20061416,19.1043926 5.21261126,19.105191 5.22460835,19.1058896 C5.31586829,19.1108795 5.40169366,19.1133744 5.48628855,19.1133744 L14.1015349,19.1133744 L39.7017948,19.1133744 L45.7073144,19.1133744 L47.938056,19.1133744 L47.938056,21.6245793 L11.8928391,21.6245793 C11.2470469,21.6245793 10.7233789,22.1342452 10.7233789,22.76277 C10.7233789,23.3912947 11.2470469,23.9009607 11.8928391,23.9009607 L47.9381586,23.9009607 L47.9381586,26.3910085 L31.021231,26.3910085 C30.3754387,26.3910085 29.8517707,26.9006744 29.8517707,27.5291992 L29.8517707,39.2061074 C29.8517707,39.8346322 30.3754387,40.3442981 31.021231,40.3442981 L47.938056,40.3442981 L47.938056,47.9736186 L47.938056,47.9736186 Z M50.3156339,38.0678169 L49.1075163,38.0678169 L32.1906913,38.0678169 L32.1906913,28.6672901 L49.1075163,28.6672901 L50.3155314,28.6672901 C50.6440672,28.6672901 50.9110794,28.9272626 50.9110794,29.2470138 L50.9110794,37.488193 C50.911182,37.8078444 50.6440672,38.0678169 50.3156339,38.0678169 Z M38.0001558,29.070472 C35.565566,29.070472 33.5849176,30.9982607 33.5849176,33.3675535 C33.5849176,35.7370459 35.5656686,37.6647348 38.0001558,37.6647348 C40.4346429,37.6647348 42.4152913,35.7369461 42.4152913,33.3675535 C42.4152913,30.9981609 40.4347455,29.070472 38.0001558,29.070472 Z M38.0001558,35.3884532 C36.8553049,35.3884532 35.9237357,34.4818926 35.9237357,33.3675535 C35.9237357,32.253414 36.8552024,31.3468534 38.0001558,31.3468534 C39.1449041,31.3468534 40.0763708,32.253414 40.0763708,33.3675535 C40.0764733,34.4818926 39.1450066,35.3884532 38.0001558,35.3884532 Z"/>
</svg>
