<svg xmlns="http://www.w3.org/2000/svg" width="39" height="54" viewBox="0 0 39 54">
  <path fill="#007EB1" d="M36.4644925,23.8994857 C35.4017472,22.9140149 34.8164224,21.6058872 34.8162094,20.2159468 C34.8158898,18.8251314 35.4014277,17.5159099 36.4637468,16.530111 C38.5467361,14.6021539 38.5934982,13.1538071 38.2658441,12.278149 C37.9552332,11.4478817 37.0608953,10.4581452 34.5645038,10.4581452 C34.3904509,10.4581452 34.208622,10.4630671 34.0251954,10.4728015 C32.5534152,10.5495829 31.1927348,10.0117849 30.2355504,8.97851714 C29.3330105,8.00409324 28.8743374,6.68338736 28.9436816,5.26161877 C29.0321994,3.51150575 28.7197776,2.23761247 28.0149379,1.47526714 C27.5762905,1.0007974 27.0092871,0.75 26.3751764,0.75 C25.3344807,0.75 24.2152801,1.42309515 23.0485717,2.75058229 C22.0877656,3.84313144 20.81294,4.44480457 19.4584378,4.44480457 C18.1039355,4.44480457 16.8290034,3.84313144 15.8685168,2.75069167 C14.7013824,1.42309515 13.5822883,0.75 12.5420187,0.75 C11.908334,0.75 11.3414372,1.00068802 10.9028963,1.47472026 C10.1979501,2.23684685 9.88499573,3.51074013 9.97276781,5.25965002 C10.0423251,6.68371549 9.58354548,8.00453074 8.68079253,8.97895464 C7.78411119,9.94703479 6.53730019,10.4801296 5.17001561,10.4801296 L5.16948301,10.4801296 C5.07745014,10.4801296 4.98381948,10.4777234 4.89242573,10.4730203 C4.70793392,10.4631765 4.5261051,10.4582546 4.3520522,10.4582546 C1.85587372,10.4582546 0.961642333,11.447991 0.650924887,12.2783678 C0.323377357,13.1540258 0.369926388,14.602482 2.45174393,16.529236 C3.51502179,17.5159099 4.10055961,18.8252408 4.10034657,20.2160562 C4.10013353,21.6059966 3.51480875,22.9141243 2.45248956,23.8991576 C0.36950031,25.8285366 0.323164318,27.2775396 0.651031407,28.1534165 C0.961748852,28.9833557 1.85555416,29.972764 4.34875009,29.972764 C4.52408123,29.972764 4.70697524,29.9677327 4.89189313,29.957889 C6.12443052,29.8928107 7.27984778,30.2619521 8.18558327,30.9919224 L1.59127923,46.9508619 C1.44630616,47.3019564 1.48976612,47.7052228 1.70600075,48.0150828 C1.9223419,48.3251616 2.28152573,48.4964432 2.65050935,48.4687713 L8.64319114,48.0132235 L11.7244814,52.762624 C11.9232468,53.068984 12.2569724,53.25 12.6107238,53.25 C12.6468339,53.25 12.6832636,53.2480312 12.7197998,53.2442031 C13.1128568,53.2028593 13.4512693,52.9413431 13.5990119,52.5649829 L19.4222211,37.7262645 L25.8472657,52.5996549 C26.004808,52.9643119 26.343114,53.2120468 26.730206,53.2459531 C26.760564,53.2485781 26.7909221,53.2498906 26.8211736,53.2498906 C27.175138,53.2498906 27.5086506,53.0686559 27.707203,52.7628427 L30.7909432,48.0131141 L36.7805359,48.4686619 C37.1514369,48.4972088 37.5130707,48.322646 37.7288792,48.0093953 C37.9445812,47.6960353 37.9846326,47.2894876 37.8344401,46.938065 L30.9441183,30.8281877 C31.742056,30.2577958 32.7087207,29.9505608 33.744836,29.9505608 C33.837295,29.9505608 33.9315648,29.9529671 34.0237042,29.9577796 C34.2094742,29.9677327 34.3923682,29.972764 34.5671668,29.972764 L34.5679124,29.972764 C37.0610018,29.9726546 37.9547006,28.9831369 38.265418,28.1530883 C38.5930721,27.2772115 38.5469491,25.8282085 36.4644925,23.8994857 Z M12.3776591,49.8241491 L10.0712984,46.2690167 C9.85825933,45.9405629 9.48767791,45.7553906 9.10612498,45.7845938 L4.23434813,46.1550477 L9.65310273,33.0413954 C9.89788459,33.6989593 10.009517,34.4198514 9.97287433,35.1696186 C9.88499573,36.9191847 10.1979501,38.1927499 10.9028963,38.9547671 C11.3415437,39.4287993 11.908334,39.679378 12.5421252,39.679378 L12.5425513,39.679378 C13.583247,39.6791592 14.7021281,39.0058453 15.8681973,37.6784676 C16.3869473,37.0884976 16.9977303,36.643231 17.6627317,36.3569961 L12.3776591,49.8241491 Z M35.1718781,46.1529696 L30.3281159,45.7845938 C29.9456043,45.7556094 29.5761946,45.9403441 29.3631555,46.2686886 L27.0090741,49.8945868 L21.140381,36.308871 C21.8494815,36.5921528 22.5001027,37.05481 23.0480391,37.6780301 C24.2146409,39.0060641 25.3339481,39.679378 26.3747503,39.6792686 C27.0089676,39.6792686 27.5760775,39.4283618 28.0149379,38.9537827 C28.7197776,38.191328 29.0324124,36.9179816 28.9438947,35.1709311 C28.9004347,34.2820386 29.06309,33.4332868 29.4110893,32.6837384 L35.1718781,46.1529696 Z M36.2766986,27.3683211 C36.2457014,27.4510088 35.8443358,27.7851501 34.5676994,27.7851501 C34.429437,27.7851501 34.2837183,27.7812126 34.1333127,27.7731188 C34.003998,27.7663375 33.8734051,27.7629469 33.744836,27.7629469 C31.7894572,27.7629469 29.9952424,28.5374329 28.6925086,29.9438889 C27.3833837,31.3571263 26.7169975,33.2524896 26.8162737,35.2826032 C26.8797594,36.5354964 26.6692768,37.2319979 26.4698723,37.4477952 C26.433123,37.4874984 26.4181038,37.491764 26.3747503,37.491764 C26.3111582,37.491764 25.7219987,37.455889 24.6297475,36.2125114 C23.2599065,34.65468 21.4232969,33.7966313 19.4583312,33.7966313 C17.4933656,33.7966313 15.6568625,34.65468 14.2865954,36.2128395 C13.1947703,37.4557796 12.6057174,37.491764 12.5421252,37.491764 C12.4989848,37.491764 12.4840721,37.4874984 12.4474293,37.448014 C12.2480248,37.2324354 12.0374357,36.5358246 12.1003887,35.2806344 C12.1995584,33.2527083 11.5331723,31.3574544 10.2239408,29.9441077 C8.83567192,28.4452296 6.89414059,27.6634154 4.78217803,27.7732282 C4.6330507,27.7811032 4.48711895,27.7851501 4.34875009,27.7851501 C3.0720071,27.7851501 2.67053502,27.4511181 2.63964436,27.3684305 C2.60119081,27.2658365 2.70099961,26.6147258 3.87995768,25.5229422 C5.39562395,24.1174706 6.23041745,22.232826 6.23073701,20.2161656 C6.23116308,18.1988489 5.39636959,16.3130012 3.87921204,14.9051232 C2.70131917,13.8149803 2.60129733,13.1650727 2.63964436,13.0625882 C2.67053502,12.9797911 3.0725397,12.645431 4.3520522,12.645431 C4.4895689,12.645431 4.63443545,12.6493685 4.78377582,12.6572436 C4.91181229,12.6639154 5.04155306,12.6673061 5.16926997,12.6673061 L5.17001561,12.6673061 C7.12645967,12.6671967 8.92173969,11.8927107 10.2244734,10.486364 C11.5332788,9.07345484 12.1995584,7.17820089 12.1002822,5.14830604 C12.0374357,3.89355342 12.2480248,3.19661447 12.4475359,2.9810359 C12.4839655,2.94166082 12.4988783,2.93728581 12.5420187,2.93728581 C12.6056108,2.93728581 13.1943442,2.97316088 14.286915,4.21621035 C15.656756,5.77404172 17.4933656,6.63209038 19.4583312,6.63209038 C21.4232969,6.63209038 23.2597999,5.77404172 24.629854,4.21610097 C25.7222117,2.97337963 26.3113712,2.93750456 26.3751764,2.93750456 C26.4185298,2.93750456 26.4335491,2.94187957 26.4701918,2.98136402 C26.6694898,3.19705197 26.8798659,3.89388155 26.8162737,5.15005604 C26.7171041,7.17809152 27.3833837,9.07312671 28.6920825,10.4860359 C29.9951358,11.8928201 31.7904159,12.6675248 33.747286,12.6675248 C33.8748964,12.6675248 34.0046372,12.6641342 34.1340584,12.6573529 C34.282227,12.6495873 34.4270936,12.6455404 34.5646103,12.6455404 C35.8443358,12.6455404 36.2463405,12.9797911 36.2773377,13.0625882 C36.3155782,13.1650727 36.2154498,13.814871 35.0364918,14.9061076 C33.5203994,16.3128918 32.6856059,18.1988489 32.686032,20.2161656 C32.6863516,22.232826 33.5212516,24.1174706 35.0372374,25.5233797 C36.2154498,26.6147258 36.3150456,27.2657271 36.2766986,27.3683211 Z M19.5204321,10.4460046 C13.9023795,10.4460046 9.33183985,15.1382019 9.33183985,20.9058857 C9.33183985,26.6741165 13.9023795,31.36697 19.5204321,31.36697 C25.1376326,31.36697 29.7076396,26.6742259 29.7076396,20.9058857 C29.7077462,15.1383112 25.1377391,10.4460046 19.5204321,10.4460046 Z M19.5204321,29.1794655 C15.0770768,29.1794655 11.4622303,25.4679265 11.4622303,20.9058857 C11.4622303,16.3445012 15.0770768,12.6335091 19.5204321,12.6335091 C23.9629353,12.6335091 27.5772492,16.3445012 27.5772492,20.9058857 C27.5773557,25.4679265 23.9629353,29.1794655 19.5204321,29.1794655 Z M19.9356452,15.3226085 C19.7950395,15.3075147 18.521279,15.1926707 17.1378035,15.7912813 C15.8070551,16.3672513 14.1487592,17.7062228 13.8061924,20.8147762 C13.7400437,21.4150274 14.1602633,21.9566536 14.7447359,22.0245756 C14.7855329,22.0292787 14.8259038,22.0315756 14.8659551,22.0315756 C15.4005766,22.0315756 15.8614865,21.619231 15.9230548,21.0607611 C16.3379484,17.2973782 19.3701331,17.4664723 19.7202627,17.4988474 C20.3036702,17.55791 20.823592,17.122706 20.8845211,16.523986 C20.9456633,15.9232972 20.520757,15.3853899 19.9356452,15.3226085 Z"/>
</svg>
