<svg xmlns="http://www.w3.org/2000/svg" width="45" height="54" viewBox="0 0 45 54">
  <path fill="#007EB1" d="M17.6932447,23.0614943 C17.4544574,22.814751 17.1326135,22.6752874 16.7900055,22.6752874 L16.7900055,22.6752874 C16.4577796,22.6752874 16.1359358,22.814751 15.8971484,23.0614943 L12.3464839,26.7090038 C12.1076966,26.9557471 11.9727298,27.2883142 11.9727298,27.6423372 C11.9727298,27.9856322 12.1076966,28.3289272 12.3464839,28.5756705 L19.2713178,35.7741379 C19.5101052,36.0208812 19.8319491,36.1603448 20.174557,36.1603448 L20.174557,36.1603448 C20.5067829,36.1603448 20.8286268,36.0208812 21.0674142,35.7741379 L32.7368494,23.7802682 C32.9756368,23.5335249 33.1106035,23.2009579 33.1106035,22.8469349 C33.1106035,22.5036398 32.9756368,22.1603448 32.7368494,21.9136015 L29.2069491,18.244636 C28.7086102,17.7296935 27.9091916,17.7296935 27.4108527,18.244636 L20.1849391,25.6683908 L17.6932447,23.0614943 Z M43.6380122,9.73735632 C44.1052049,9.94118774 44.4166667,10.4132184 44.4166667,10.9496169 L44.4166667,30.6461686 C44.4166667,43.101341 34.6056202,53.25 22.5416667,53.25 C10.4777132,53.25 0.666666667,43.112069 0.666666667,30.6461686 L0.666666667,10.9496169 C0.666666667,10.4239464 0.967746401,9.94118774 1.44532115,9.73735632 L22.0537099,0.854597701 C22.3651717,0.7151341 22.7181617,0.7151341 23.0296235,0.854597701 L43.6380122,9.73735632 Z M28.3037099,21.033908 L30.0375138,22.8362069 L20.174557,32.9741379 L15.0458195,27.6423372 L16.7900055,25.8507663 L19.2920819,28.4469349 C19.7904208,28.9618774 20.5898394,28.9618774 21.0881783,28.4469349 L28.3037099,21.033908 Z M41.873062,30.6461686 L41.873062,11.8293103 L22.5416667,3.49367816 L3.21027132,11.8293103 L3.21027132,30.6461686 C3.21027132,41.6530651 11.8792913,50.6216475 22.5416667,50.6216475 C33.2040421,50.6216475 41.873062,41.6637931 41.873062,30.6461686 Z"/>
</svg>
