<svg xmlns="http://www.w3.org/2000/svg" width="48" height="54" viewBox="0 0 48 54">
  <path fill="#007EB1" d="M43.0909724,32.8974316 L43.0909724,5.12503418 C43.0909724,3.6375 41.9879744,2.50003418 40.545516,2.50003418 L29.5152383,2.50003418 C29.5152383,1.5375 28.7516014,0.75 27.8182342,0.75 L15.9394048,0.75 C15.0060376,0.75 14.2424007,1.5375 14.2424007,2.50003418 L3.21212302,2.50003418 C1.76966461,2.50003418 0.666666667,3.6375 0.666666667,5.12503418 L0.666666667,50.625 C0.666666667,52.1125342 1.76966461,53.25 3.21212302,53.25 L36.3030556,53.25 C42.4121509,53.25 47.3333333,48.1750342 47.3333333,41.8750342 C47.3334328,38.2191064 45.6759032,34.976001 43.0909724,32.8974316 Z M40.545516,4.24996582 C41.0546073,4.24996582 41.3939683,4.59993164 41.3939683,5.12493164 L41.3939683,31.7745264 C40.8532577,31.4851611 40.2859988,31.240708 39.6969643,31.0455762 L39.6969643,7.75003418 C39.6969643,6.7875 38.9333274,6 37.9999602,6 L29.5151389,6 L29.5151389,4.24996582 L40.545516,4.24996582 Z M25.2786444,42.2310498 C25.2791415,42.2483789 25.279937,42.265708 25.2805336,42.2829346 C25.3518262,44.3860107 25.9713863,46.3407129 26.9978217,48 L5.75757937,48 L5.75757937,7.75003418 L14.2424007,7.75003418 C14.2424007,8.71256836 15.0060376,9.50006836 15.9394048,9.50006836 L27.8182342,9.50006836 C28.7516014,9.50006836 29.5152383,8.71256836 29.5152383,7.75003418 L38.0000597,7.75003418 L38.0000597,30.632959 C37.8816363,30.6141943 37.7624174,30.5979932 37.6427015,30.583125 C37.6343492,30.5820996 37.6258975,30.5811768 37.6175452,30.5801514 C37.5239798,30.5687695 37.4301161,30.5586182 37.3358546,30.5496973 C37.3120904,30.5474414 37.2884256,30.5452881 37.2646614,30.5432373 C37.1848176,30.5361621 37.1047749,30.5300098 37.024434,30.5247803 C36.995201,30.522832 36.9658686,30.5207813 36.9366356,30.5190381 C36.8588799,30.5145264 36.7809253,30.5111426 36.7027718,30.5082715 C36.6742349,30.5072461 36.6457973,30.5058105 36.6172604,30.5049902 C36.5128569,30.5020166 36.4082546,30.5001709 36.303155,30.5001709 C30.1940598,30.5001709 25.2728773,35.5751367 25.2728773,41.8751367 C25.2727779,41.9941846 25.2751643,42.1127197 25.2786444,42.2310498 Z M15.9394048,2.50003418 L27.8182342,2.50003418 L27.8182342,3.375 L27.8182342,6.87496582 L27.8182342,7.74993164 L15.9394048,7.74993164 L15.9394048,6.87496582 L15.9394048,3.375 L15.9394048,2.50003418 Z M3.21212302,51.4999658 C2.70303175,51.4999658 2.36367071,51.15 2.36367071,50.625 L2.36367071,5.12503418 C2.36367071,4.60003418 2.70303175,4.25006836 3.21212302,4.25006836 L14.2424007,4.25006836 L14.2424007,6 L5.75757937,6 C4.82421223,6 4.06057533,6.7875 4.06057533,7.75003418 L4.06057533,48 C4.06057533,48.9625342 4.82421223,49.7500342 5.75757937,49.7500342 L28.3313028,49.7500342 C28.9504652,50.4165381 29.6479799,51.0048047 30.4087332,51.5000684 L3.21212302,51.5000684 L3.21212302,51.4999658 Z M36.3030556,51.4999658 C33.6066617,51.4999658 31.1869866,50.3358398 29.4871985,48.4663477 C29.4530934,48.3941602 29.4068575,48.3257666 29.3455081,48.2625 C27.9147826,46.6231055 27.079853,44.5230029 26.9800234,42.3218994 C26.9798246,42.3164648 26.9796257,42.3111328 26.9794268,42.3056982 C26.9731626,42.1624512 26.9697819,42.0188965 26.9697819,41.8749316 C26.9697819,36.5374658 31.1273275,32.2498975 36.303155,32.2498975 C36.4124307,32.2498975 36.5213086,32.2524609 36.6299877,32.2563574 C36.6399309,32.256665 36.6497746,32.2571777 36.6597178,32.2574854 C36.6842775,32.2584082 36.7088372,32.2598438 36.7333968,32.2609717 C36.8056838,32.2643555 36.8777719,32.2687646 36.9497606,32.2737891 C37.0152862,32.2786084 37.0809113,32.2835303 37.1464369,32.2900928 C37.1555846,32.2909131 37.1647324,32.2919385 37.1737807,32.2928613 C37.6471759,32.3419775 38.1206705,32.4371338 38.5940658,32.5999658 C38.6930005,32.6340088 38.7920347,32.6408789 38.8909694,32.6271387 C39.7821774,32.8930225 40.6450473,33.2990771 41.4701331,33.8469434 C43.9857599,35.5665234 45.6364287,38.5120605 45.6364287,41.8749316 C45.6364287,47.2125 41.4788832,51.4999658 36.3030556,51.4999658 Z M41.9030596,36.8875342 C41.4787837,36.5375684 40.9696925,36.6250342 40.7151468,37.0625684 L35.9636946,44.0625 L32.6546013,41.2624658 C32.3152403,40.9125 31.7212342,40.9999658 31.4666885,41.3499316 C31.1273275,41.6998975 31.2121429,42.3124658 31.5515039,42.5749658 L35.6242341,45.9874658 C35.7090495,46.0749316 35.9635951,46.1625 36.1333254,46.1625 C36.1333254,46.1625 36.2181408,46.1625 36.2181408,46.2499658 C36.4726864,46.2499658 36.6424166,46.0749316 36.8120475,45.9 L42.0726904,38.1124658 C42.4121509,37.6750342 42.3273355,37.1500342 41.9030596,36.8875342 Z M28.6666866,29.625 C27.0927792,29.625 25.760193,28.5051709 25.3809598,27 L18.3767787,27 C17.9975455,28.5051709 16.6648598,29.625 15.0909525,29.625 C13.5169457,29.625 12.1843595,28.5051709 11.8051263,27 L10.509131,27 C9.23640287,27 8.30303573,26.0374658 8.30303573,24.7249658 L8.30303573,21.3124658 C8.30303573,20.0874316 9.23640287,19.0374316 10.509131,19.0374316 L12.2314902,19.0374316 L15.5151289,14.3124316 C16.0242202,13.5249316 16.8726725,13.0873975 17.8060396,13.0873975 L21.4775621,13.0873975 C21.5938974,13.0311035 21.7286276,12.9999316 21.8787698,12.9999316 C22.028912,12.9999316 22.1637416,13.031001 22.2799775,13.0873975 L25.9515,13.0873975 C26.8848671,13.0873975 27.7333194,13.5249316 28.2424107,14.3124316 L31.5260494,19.0374316 L33.3333234,19.0374316 C34.5212362,19.0374316 35.5394187,19.9999658 35.5394187,21.3124658 L35.5394187,24.7249658 C35.4546033,26.0374658 34.5212362,27 33.248508,27 L31.9525128,27 C31.5732795,28.5051709 30.2405939,29.625 28.6666866,29.625 Z M28.6666866,27.8749658 C29.6000537,27.8749658 30.3636906,27.0875684 30.3636906,26.1250342 C30.3636906,25.1625 29.6000537,24.3748975 28.6666866,24.3748975 C27.7333194,24.3748975 26.9696825,25.1623975 26.9696825,26.1249316 C26.9696825,27.0874658 27.7333194,27.8749658 28.6666866,27.8749658 Z M26.8000517,15.1875 C26.6303215,14.925 26.2909604,14.7499658 25.8666846,14.7500684 L22.7273215,14.7500684 L22.7273215,19.0375342 L29.4548831,19.0375342 L26.8000517,15.1875 Z M16.7879565,15.1875 L14.2161507,19.0374316 L21.0304169,19.0374316 L21.0304169,14.7499658 L17.7213237,14.7499658 C17.3818632,14.7499658 17.0425022,14.925 16.7879565,15.1875 Z M15.0909525,27.8749658 C16.0243196,27.8749658 16.7879565,27.0874658 16.7879565,26.1249316 C16.7879565,25.1623975 16.0243196,24.3748975 15.0909525,24.3748975 C14.1575853,24.3748975 13.3939484,25.1623975 13.3939484,26.1249316 C13.3939484,27.0874658 14.1575853,27.8749658 15.0909525,27.8749658 Z M15.1757679,22.6249658 C16.7879565,22.6249658 18.0606847,23.7625342 18.4848611,25.2499658 L25.3808604,25.2499658 C25.7600936,23.7447949 27.0926798,22.6249658 28.6666866,22.6249658 C28.6926383,22.6249658 28.7182917,22.6264014 28.7440446,22.6270166 C28.774769,22.6261963 28.8054935,22.6249658 28.8364168,22.6249658 C30.448506,22.6249658 31.5515039,23.7624316 31.9757798,25.2499658 L33.3333234,25.2499658 C33.587869,25.2499658 33.8424147,24.9874658 33.8424147,24.7249658 L33.8424147,21.3124658 C33.8424147,21.0499658 33.587869,20.7874658 33.3333234,20.7874658 L31.5937625,20.7874658 C31.4812056,20.8426318 31.3546288,20.8749316 31.2121429,20.8749316 L12.5454961,20.8749316 C12.4030102,20.8749316 12.2764334,20.8426318 12.1638765,20.7874658 L10.509131,20.7874658 C10.2545854,20.7874658 10.0000398,21.0499658 10.0000398,21.3124658 L10.0000398,24.7249658 C10.0000398,24.9874658 10.2545854,25.2499658 10.509131,25.2499658 L11.8051263,25.2499658 C12.1843595,23.7447949 13.5169457,22.6249658 15.0909525,22.6249658 C15.1039781,22.6249658 15.1167053,22.6258887 15.1296315,22.6259912 C15.1450434,22.6257861 15.1602565,22.6249658 15.1757679,22.6249658 Z M21.8788692,34.0000342 C22.3879605,34.0000342 22.7273215,34.35 22.7273215,34.875 C22.7273215,35.4 22.3879605,35.7499658 21.8788692,35.7499658 L9.15158747,35.7499658 C8.64249619,35.7499658 8.30313516,35.4 8.30313516,34.875 C8.30313516,34.35 8.64249619,34.0000342 9.15158747,34.0000342 L21.8788692,34.0000342 Z M21.8788692,38.3749658 C22.3879605,38.3749658 22.7273215,38.7249316 22.7273215,39.2499316 C22.7273215,39.7749316 22.3879605,40.1248975 21.8788692,40.1248975 L9.15158747,40.1248975 C8.64249619,40.1248975 8.30313516,39.7749316 8.30313516,39.2499316 C8.30313516,38.7249316 8.64249619,38.3749658 9.15158747,38.3749658 L21.8788692,38.3749658 Z M21.8788692,42.75 C22.3879605,42.75 22.7273215,43.0999658 22.7273215,43.6249658 C22.7273215,44.1499658 22.3879605,44.4999316 21.8788692,44.4999316 L9.15158747,44.4999316 C8.64249619,44.4999316 8.30313516,44.1499658 8.30313516,43.6249658 C8.30313516,43.0999658 8.64249619,42.75 9.15158747,42.75 L21.8788692,42.75 Z"/>
</svg>
