<svg xmlns="http://www.w3.org/2000/svg" width="54" height="51" viewBox="0 0 54 51">
  <path fill="#007EB1" d="M53.25,7.05792183 L53.25,9.17113894 L45.154097,9.17113894 L45.154097,7.05792183 L53.25,7.05792183 Z M49.8549806,11.6634659 L45.154097,11.6634659 L45.154097,13.7766831 L49.8549806,13.7766831 L49.8549806,11.6634659 Z M45.154097,18.3822272 L53.25,18.3822272 L53.25,16.2690101 L45.154097,16.2690101 L45.154097,18.3822272 Z M49.8549806,20.8758694 L45.154097,20.8758694 L45.154097,22.9890865 L49.8549806,22.9890865 L49.8549806,20.8758694 Z M45.154097,27.5946306 L53.25,27.5946306 L53.25,25.4814135 L45.154097,25.4814135 L45.154097,27.5946306 Z M46.4160748,39.6353978 C46.4160748,45.5342886 41.6713048,50.3333333 35.8391273,50.3333333 C30.0069498,50.3333333 25.2621798,45.5342886 25.2621798,39.6353978 C25.2621798,36.5259075 26.5919378,33.6615398 28.8264057,31.661431 L26.5397617,27.6548016 L19.3778263,40.2027474 L21.5162318,48.2802872 C21.6665833,48.8435268 21.3354848,49.4235353 20.7776399,49.5746203 C20.6877541,49.5989518 20.5959177,49.6106243 20.5070071,49.6106243 C20.0452247,49.6106243 19.6232651,49.3000698 19.497945,48.8277442 L17.9006426,42.7925645 L15.0728955,47.7458178 C14.8786576,48.0839918 14.5287042,48.2740399 14.1672103,48.2740399 C13.9895516,48.2740399 13.8099425,48.2286651 13.6459374,48.1324902 C13.1456324,47.8408419 12.9752882,47.1942508 13.2636381,46.6892093 L16.025718,41.8521878 L10.2384022,43.4200851 C10.1485164,43.4444165 10.05668,43.456089 9.96679417,43.456089 C9.50614951,43.456089 9.08305211,43.1455346 8.95870731,42.673209 C8.80933101,42.1099694 9.14042951,41.5299609 9.69729917,41.3788759 L17.5027392,39.2635215 L24.7326173,26.5983574 L10.4033826,26.5983574 L4.55755156,32.5089208 C4.35388615,32.7149159 4.08634165,32.8184888 3.8189597,32.8184888 C3.55157774,32.8184888 3.28403325,32.7149159 3.08036784,32.5089208 C2.67189924,32.0957798 2.67189924,31.4279808 3.08036784,31.0148398 L7.44901515,26.5962202 L1.79465886,26.5962202 C1.21795906,26.5962202 0.75,26.1229082 0.75,25.5407625 C0.75,24.9574659 1.21795906,24.4841539 1.79465886,24.4841539 L7.31768103,24.4841539 L3.08069293,20.199686 C2.67222432,19.7865449 2.67222432,19.118746 3.08069293,18.705605 C3.48916153,18.2924639 4.14940804,18.2924639 4.55787664,18.705605 L10.2720485,24.4851403 L24.7296915,24.4851403 L17.5666183,11.9360437 L9.58335707,9.77219089 C9.02551216,9.62110589 8.69441366,9.04208375 8.84476521,8.47785774 C8.99414151,7.91461814 9.56872827,7.57874584 10.1244601,7.73081724 L16.0892721,9.34737737 L13.2626628,4.39626126 C12.9754507,3.89023339 13.1467702,3.24462863 13.6460999,2.95298034 C14.1444544,2.66133204 14.7837329,2.83461124 15.0720828,3.33965271 L17.8351381,8.17881138 L19.3853032,2.32217171 C19.5346795,1.75893211 20.1040649,1.42092259 20.6649982,1.57513122 C21.2217053,1.72621621 21.5529663,2.30523836 21.40359,2.86946437 L19.3119967,10.7674777 L26.5397617,23.4285318 L30.4853116,16.5164343 L30.4853116,6.16505719 C30.4853116,3.17919683 32.8868729,0.75 35.8391273,0.75 C38.7913817,0.75 41.192943,3.17903242 41.192943,6.16505719 L41.192943,30.4167471 C44.4302965,32.336628 46.4160748,35.8117473 46.4160748,39.6353978 Z M28.3491817,24.4839895 L30.4854741,24.4839895 L30.4854741,20.7417178 L28.3491817,24.4839895 Z M30.4854741,30.3406292 L30.4854741,26.5972066 L28.3482065,26.5972066 L30.4854741,30.3406292 Z M44.3267571,39.6353978 C44.3267571,36.3917558 42.5446442,33.4596548 39.6749612,31.9857952 L39.1036253,31.6920096 L39.1036253,6.16505719 C39.1036253,4.34348837 37.6391199,2.86321711 35.8391273,2.86321711 C34.0392973,2.86321711 32.5746293,4.34348837 32.5746293,6.16505719 L32.5746293,31.6920096 L32.0032934,31.9857952 C29.1336105,33.4608056 27.3514976,36.3927422 27.3514976,39.6353978 C27.3514976,44.3688463 31.1592117,48.2201162 35.8391273,48.2201162 C40.519043,48.2201162 44.3267571,44.3688463 44.3267571,39.6353978 Z M42.5864175,39.6353978 C42.5864175,43.3978909 39.5600439,46.4587184 35.8391273,46.4587184 C32.119186,46.4587184 29.0929749,43.3977265 29.0929749,39.6353978 C29.0929749,36.5512253 31.1530351,33.8432035 34.1030138,33.0498018 L34.4905145,32.9452424 L34.4905145,26.7800211 L37.1888779,26.7800211 L37.1888779,32.9440916 L37.5763786,33.0498018 C40.5265199,33.8432035 42.5864175,36.5523761 42.5864175,39.6353978 Z M36.1725014,35.086901 C36.0115846,34.3641919 35.2929855,33.8887427 34.5605702,34.0577475 C32.0032934,34.6430169 30.2169544,36.9051818 30.2169544,39.5594443 C30.2169544,40.3105948 30.821774,40.9224973 31.564592,40.9224973 C32.3074099,40.9224973 32.9122295,40.3107592 32.9122295,39.5594443 C32.9122295,38.210201 33.8544868,37.01418 35.1549871,36.7172708 C35.8789502,36.5490881 36.3353687,35.8179945 36.1725014,35.086901 Z"/>
</svg>
