<svg xmlns="http://www.w3.org/2000/svg" xmlns:xlink="http://www.w3.org/1999/xlink" width="149" height="170" viewBox="0 0 149 170">
  <defs>
    <path id="geotag-a" d="M130.557535,38.0121581 C152.036377,59.3686496 152.036377,93.9878419 130.557535,115.337386 L91.663229,154 L52.7757985,115.337386 C31.2969561,93.9878419 31.2969561,59.3686496 52.7757985,38.0121581 C74.2546409,16.662614 109.078692,16.662614 130.557535,38.0121581 Z"/>
    <polygon id="geotag-c" points="8.406 .531 8.406 8.974 .072 8.974 .072 .531 8.406 .531"/>
    <polygon id="geotag-e" points="0 82.5 68.441 82.5 68.441 .281 0 .281"/>
  </defs>
  <g fill="none" fill-rule="evenodd" transform="translate(-17 -6)">
    <rect width="176" height="176"/>
    <mask id="geotag-b" fill="#fff">
      <use xlink:href="#geotag-a"/>
    </mask>
    <use fill="#EA962F" fill-rule="nonzero" xlink:href="#geotag-a"/>
    <g fill="#022C3D" mask="url(#geotag-b)">
      <rect width="176" height="176"/>
    </g>
    <g transform="translate(59.125 35.75)">
      <polygon fill="#007EB2" points="20.768 0 0 35.87 10.812 35.87 20.768 18.676 30.723 35.87 41.536 35.87"/>
      <path fill="#007EB2" d="M37.0049296 82.5L41.3197183 82.5 41.3197183 73.8501176 41.3197183 54.6645 32.6901408 54.6645 32.6901408 73.8501176 20.6598592 73.8501176C14.0162852 73.8501176 8.62957746 68.4507353 8.62957746 61.7915294 8.62957746 55.1313529 14.0162852 49.7329412 20.6598592 49.7329412L41.3197183 49.7329412 41.3197183 41.0830588 20.6598592 41.0830588C9.24929577 41.0830588 0 50.3541176 0 61.7915294 0 73.2279706 9.24929577 82.5 20.6598592 82.5L26.675 82.5 37.0049296 82.5zM47.4860123 27.9086824L49.0169102 27.9086824 49.0169102 33.1100647C49.0169102 33.5584765 49.0556426 33.8748882 49.1331074 34.0602706 49.2115405 34.2466235 49.3403257 34.3941529 49.5213996 34.5057706 49.7015053 34.6164176 49.919375 34.6727118 50.1721039 34.6727118 50.4422623 34.6727118 50.6736884 34.6105941 50.869287 34.4853882 51.0648856 34.3621235 51.1985123 34.2058588 51.2730722 34.0136824 51.347632 33.8234471 51.3844278 33.4575353 51.3844278 32.9178882L51.3844278 27.9086824 52.9153257 27.9086824 52.9153257 32.7014471C52.9153257 33.5118882 52.8707835 34.0719176 52.7797623 34.3844471 52.6877729 34.6989176 52.5144454 35.0007706 52.2578433 35.2919471 52.0031778 35.5831235 51.706875 35.7995647 51.3718398 35.9393294 51.0377729 36.0790941 50.6494806 36.1509176 50.2059947 36.1509176 49.6250088 36.1509176 49.1185827 36.0160059 48.6886532 35.7490941 48.256787 35.4802412 47.9498327 35.1463588 47.7629489 34.7435647 47.5789701 34.3398 47.4860123 33.6603882 47.4860123 32.7014471L47.4860123 27.9086824z"/>
      <polygon fill="#007EB2" points="55.035 27.909 59.471 27.909 59.471 29.421 58.007 29.421 58.007 36.151 56.453 36.151 56.453 29.421 55.035 29.421"/>
      <g transform="translate(60.035 27.176)">
        <mask id="geotag-d" fill="#fff">
          <use xlink:href="#geotag-c"/>
        </mask>
        <path fill="#007EB2" d="M4.23316021,2.03124706 C3.49433979,2.03124706 2.87268486,2.29039412 2.36916373,2.80771765 C1.8646743,3.32504118 1.61388204,3.98115882 1.61388204,4.78092353 C1.61388204,5.66901176 1.93051937,6.37268824 2.56476232,6.88904118 C3.05860035,7.29377647 3.623125,7.49565882 4.2612412,7.49565882 C4.98166373,7.49565882 5.59654049,7.23262941 6.10296655,6.70851176 C6.61132923,6.18342353 6.8640581,5.53798235 6.8640581,4.76927647 C6.8640581,4.00445294 6.60939261,3.3561 6.09715669,2.82615882 C5.58685739,2.29621765 4.96520246,2.03124706 4.23316021,2.03124706 M4.25543134,0.530717647 C5.38932218,0.530717647 6.36537852,0.943217647 7.18069542,1.76627647 C7.99891725,2.58933529 8.4065757,3.59292353 8.4065757,4.77704118 C8.4065757,5.95048235 8.0037588,6.94339412 7.198125,7.75480588 C6.39345951,8.56718824 5.41546655,8.97386471 4.26705106,8.97386471 C3.06247359,8.97386471 2.06220951,8.55651176 1.26722711,7.72180588 C0.470308099,6.8871 0.0723327465,5.89612941 0.0723327465,4.74889412 C0.0723327465,3.98115882 0.258248239,3.27457059 0.628142606,2.62815882 C0.999005282,1.98465882 1.50930458,1.47315882 2.15710387,1.09657059 C2.80683979,0.719011765 3.50692782,0.530717647 4.25543134,0.530717647" mask="url(#geotag-d)"/>
      </g>
      <path fill="#007EB2" d="M50.2118046 43.4783735L49.0982482 46.3134618 51.3205194 46.3134618 50.2118046 43.4783735zM49.422632 41.0829618L50.9980722 41.0829618 54.1605722 49.5261088 52.5328433 49.5261088 51.8918222 47.8275794 48.5240405 47.8275794 47.8675264 49.5261088 46.2407658 49.5261088 49.422632 41.0829618zM59.6905898 42.4097559L58.5305546 43.4346971C58.1248327 42.8688441 57.7103961 42.5854324 57.2891813 42.5854324 57.0829313 42.5854324 56.9154137 42.6407559 56.7856602 42.7504324 56.6539701 42.8610794 56.588125 42.9853147 56.588125 43.1231382 56.588125 43.2599912 56.6346039 43.3919912 56.7275616 43.5152559 56.8553785 43.6792853 57.2388292 44.0306382 57.8779137 44.5722265 58.4753609 45.07305 58.8375088 45.3884912 58.9653257 45.51855 59.281963 45.8398147 59.5075792 46.14555 59.641206 46.4376971 59.7719278 46.7327559 59.8387412 47.0520794 59.8387412 47.3976088 59.8387412 48.0750794 59.6063468 48.6312265 59.1396215 49.0728441 58.6738644 49.5125206 58.0647975 49.7328441 57.3133891 49.7328441 56.7275616 49.7328441 56.2191989 49.5891971 55.7834595 49.3028735 55.3486884 49.0136382 54.9749208 48.5623147 54.6660299 47.9469618L55.9838996 47.1510794C56.3809067 47.87805 56.8369806 48.24105 57.3511532 48.24105 57.6203433 48.24105 57.8478961 48.1624324 58.0309067 48.0061676 58.2139173 47.8489324 58.3059067 47.6674324 58.3059067 47.4636088 58.3059067 47.2782265 58.2371567 47.0899324 58.0977201 46.9026088 57.9602201 46.7172265 57.6552025 46.4309029 57.1836356 46.04655 56.2869806 45.3156971 55.709868 44.7517853 55.4484243 44.3538441 55.1869806 43.9568735 55.0552905 43.5608735 55.0552905 43.1648735 55.0552905 42.5931971 55.2731602 42.1040206 55.7059947 41.6963735 56.1397975 41.2867853 56.6762412 41.0829618 57.3133891 41.0829618 57.7239525 41.0829618 58.1151496 41.1780794 58.485044 41.3673441 58.856875 41.55855 59.2577553 41.9040794 59.6905898 42.4097559"/>
      <mask id="geotag-f" fill="#fff">
        <use xlink:href="#geotag-e"/>
      </mask>
      <polygon fill="#93C300" points="41.32 82.5 46.241 82.5 46.241 27.908 41.32 27.908" mask="url(#geotag-f)"/>
      <path fill="#FEFEFE" d="M42.438794,79.1167235 L43.0459243,79.1167235 L44.4945158,81.3345176 L44.4945158,79.1167235 L45.1306954,79.1167235 L45.1306954,82.4866059 L44.5187236,82.4866059 L43.0759419,80.2765765 L43.0759419,82.4866059 L42.438794,82.4866059 L42.438794,79.1167235 Z M43.7847447,74.3229882 L43.3286708,75.4828412 L44.2379137,75.4828412 L43.7847447,74.3229882 Z M43.4622975,73.4271353 L44.1062236,73.4271353 L45.4008539,76.7970176 L44.7346567,76.7970176 L44.4722447,76.1020765 L43.0943398,76.1020765 L42.826118,76.7970176 L42.1599208,76.7970176 L43.4622975,73.4271353 Z M42.8551673,67.7375471 L44.7143222,67.7375471 L44.7143222,68.3713412 L44.1004137,68.3713412 L44.1004137,71.1074294 L43.4497095,71.1074294 L43.4497095,68.3713412 L42.8551673,68.3713412 L42.8551673,67.7375471 Z M44.7143222,62.5060765 L44.238882,62.9253706 C44.0733011,62.6943706 43.9038468,62.5779 43.7305194,62.5779 C43.6472447,62.5779 43.5784947,62.6011941 43.5252377,62.6458412 C43.4710123,62.6904882 43.444868,62.7419294 43.444868,62.7982235 C43.444868,62.8545176 43.4632658,62.9088706 43.5019982,62.9583706 C43.554287,63.0253412 43.7101849,63.1699588 43.9725968,63.3912529 C44.2166109,63.5960471 44.3647623,63.7251353 44.4170511,63.7785176 C44.5468046,63.9095471 44.638794,64.0347529 44.6939877,64.1541353 C44.7472447,64.2744882 44.7743574,64.4055176 44.7743574,64.5472235 C44.7743574,64.8238412 44.679463,65.0509588 44.488706,65.2324588 C44.2979489,65.4120176 44.0490933,65.5022824 43.7411708,65.5022824 C43.5019982,65.5022824 43.2938116,65.4440471 43.1156426,65.3266059 C42.9374736,65.2081941 42.7844806,65.0228118 42.6586004,64.7714294 L43.1979489,64.4462824 C43.3596567,64.7432824 43.5465405,64.8917824 43.7566637,64.8917824 C43.8670511,64.8917824 43.9600088,64.8597529 44.0345687,64.7956941 C44.1100968,64.7316353 44.1468926,64.6578706 44.1468926,64.5734294 C44.1468926,64.4977235 44.1188116,64.4210471 44.0626496,64.3443706 C44.0055194,64.2686647 43.8806074,64.1512235 43.688882,63.9939882 C43.3218926,63.6950471 43.0846567,63.4650176 42.9781426,63.3019588 C42.8716285,63.1389 42.8174032,62.9777824 42.8174032,62.8156941 C42.8174032,62.5808118 42.9064877,62.3808706 43.0836884,62.2139294 C43.2618574,62.0479588 43.4806954,61.9635176 43.7411708,61.9635176 C43.9096567,61.9635176 44.0694278,62.0023412 44.2204842,62.0799882 C44.3725088,62.1586059 44.5371215,62.3003118 44.7143222,62.5060765 L44.7143222,62.5060765 Z M42.5685475,56.3583706 L43.2202201,56.3583706 L43.2202201,57.6298412 L44.3434595,57.6298412 L44.3434595,56.3583706 L44.9893222,56.3583706 L44.9893222,59.7282529 L44.3434595,59.7282529 L44.3434595,58.2490765 L43.2202201,58.2490765 L43.2202201,59.7282529 L42.5685475,59.7282529 L42.5685475,56.3583706 Z M42.7186356,50.6687824 L43.3644982,50.6687824 L43.3644982,51.8344588 L44.2747095,50.6687824 L45.0464525,50.6687824 L43.8718926,52.1722235 L45.160713,54.0386647 L44.4005898,54.0386647 L43.3644982,52.5371647 L43.3644982,54.0386647 L42.7186356,54.0386647 L42.7186356,50.6687824 Z M43.7847447,45.8750471 L43.3286708,47.0349 L44.2379137,47.0349 L43.7847447,45.8750471 Z M43.4622975,44.9791941 L44.1062236,44.9791941 L45.4008539,48.3490765 L44.7346567,48.3490765 L44.4722447,47.6541353 L43.0943398,47.6541353 L42.826118,48.3490765 L42.1599208,48.3490765 L43.4622975,44.9791941 Z M42.8174032,39.2896059 L44.8537588,39.2896059 L43.6540229,42.0392824 L44.7743574,42.0392824 L44.7743574,42.6585176 L42.7186356,42.6585176 L43.9125616,39.9234 L42.8174032,39.9234 L42.8174032,39.2896059 Z M43.7847447,34.4958706 L43.3286708,35.6557235 L44.2379137,35.6557235 L43.7847447,34.4958706 Z M43.4622975,33.6000176 L44.1062236,33.6000176 L45.4008539,36.9699 L44.7346567,36.9699 L44.4722447,36.2749588 L43.0943398,36.2749588 L42.826118,36.9699 L42.1599208,36.9699 L43.4622975,33.6000176 Z M42.7186356,27.9104294 L43.3644982,27.9104294 L43.3644982,29.0751353 L44.2747095,27.9104294 L45.0464525,27.9104294 L43.8718926,29.4148412 L45.160713,31.2793412 L44.4005898,31.2793412 L43.3644982,29.7788118 L43.3644982,31.2793412 L42.7186356,31.2793412 L42.7186356,27.9104294 Z" mask="url(#geotag-f)"/>
    </g>
  </g>
</svg>
