<svg xmlns="http://www.w3.org/2000/svg" xmlns:xlink="http://www.w3.org/1999/xlink" width="84" height="100" viewBox="0 0 84 100">
  <defs>
    <polygon id="logo-a" points="10.27 .643 10.27 10.877 .088 10.877 .088 .643 10.27 .643"/>
    <polygon id="logo-c" points="0 100 83.623 100 83.623 .341 0 .341"/>
  </defs>
  <g fill="none" fill-rule="evenodd">
    <polygon fill="#007EB2" points="25.375 0 0 43.478 13.211 43.478 25.375 22.638 37.538 43.478 50.75 43.478"/>
    <path fill="#007EB2" d="M45.2132958 100L50.4851831 100 50.4851831 89.5152941 50.4851831 66.26 39.9414085 66.26 39.9414085 89.5152941 25.2425915 89.5152941C17.1253521 89.5152941 10.5437746 82.9705882 10.5437746 74.8988235 10.5437746 66.8258824 17.1253521 60.2823529 25.2425915 60.2823529L50.4851831 60.2823529 50.4851831 49.7976471 25.2425915 49.7976471C11.3009577 49.7976471 0 61.0352941 0 74.8988235 0 88.7611765 11.3009577 100 25.2425915 100L32.592 100 45.2132958 100zM58.0192732 33.8287059L59.8897521 33.8287059 59.8897521 40.1334118C59.8897521 40.6769412 59.9370761 41.0604706 60.0317239 41.2851765 60.1275549 41.5110588 60.284907 41.6898824 60.5061465 41.8251765 60.7262028 41.9592941 60.9924 42.0275294 61.3011887 42.0275294 61.6312732 42.0275294 61.9140338 41.9522353 62.1530197 41.8004706 62.3920056 41.6510588 62.5552732 41.4616471 62.6463718 41.2287059 62.7374704 40.9981176 62.7824282 40.5545882 62.7824282 39.9004706L62.7824282 33.8287059 64.652907 33.8287059 64.652907 39.6381176C64.652907 40.6204706 64.5984845 41.2992941 64.4872732 41.6781176 64.3748789 42.0592941 64.1631042 42.4251765 63.8495831 42.7781176 63.5384282 43.1310588 63.1764 43.3934118 62.7670479 43.5628235 62.3588789 43.7322353 61.8844563 43.8192941 61.3425972 43.8192941 60.632738 43.8192941 60.0139775 43.6557647 59.4886817 43.3322353 58.9610197 43.0063529 58.5859775 42.6016471 58.3576394 42.1134118 58.1328507 41.624 58.0192732 40.8004706 58.0192732 39.6381176L58.0192732 33.8287059z"/>
    <polygon fill="#007EB2" points="67.243 33.829 72.662 33.829 72.662 35.662 70.874 35.662 70.874 43.819 68.976 43.819 68.976 35.662 67.243 35.662"/>
    <g transform="translate(73.352 32.941)">
      <mask id="logo-b" fill="#fff">
        <use xlink:href="#logo-a"/>
      </mask>
      <path fill="#007EB2" d="M5.17215211,2.46211765 C4.26944789,2.46211765 3.50989859,2.77623529 2.89468732,3.40329412 C2.27829296,4.03035294 1.97187042,4.82564706 1.97187042,5.79505882 C1.97187042,6.87152941 2.35874366,7.72447059 3.13367324,8.35035294 C3.73705352,8.84094118 4.4268,9.08564706 5.20646197,9.08564706 C6.08668732,9.08564706 6.83795493,8.76682353 7.45671549,8.13152941 C8.07784225,7.49505882 8.38663099,6.71270588 8.38663099,5.78094118 C8.38663099,4.85388235 8.07547606,4.068 7.4496169,3.42564706 C6.82612394,2.78329412 6.06657465,2.46211765 5.17215211,2.46211765 M5.19936338,0.643294118 C6.58477183,0.643294118 7.77733521,1.14329412 8.77350423,2.14094118 C9.77322254,3.13858824 10.271307,4.35505882 10.271307,5.79035294 C10.271307,7.21270588 9.77913803,8.41623529 8.7948,9.39976471 C7.81164507,10.3844706 6.61671549,10.8774118 5.21356056,10.8774118 C3.74178592,10.8774118 2.51964507,10.3715294 1.54832113,9.35976471 C0.574630986,8.348 0.0883774648,7.14682353 0.0883774648,5.75623529 C0.0883774648,4.82564706 0.315532394,3.96917647 0.767476056,3.18564706 C1.22060282,2.40564706 1.84409577,1.78564706 2.63558873,1.32917647 C3.42944789,0.871529412 4.28482817,0.643294118 5.19936338,0.643294118" mask="url(#logo-b)"/>
    </g>
    <path fill="#007EB2" d="M61.3496958 52.7010588L59.9891324 56.1375294 62.7043437 56.1375294 61.3496958 52.7010588zM60.3854704 49.7975294L62.3103718 49.7975294 66.1743718 60.0316471 64.1855831 60.0316471 63.4023718 57.9728235 59.2875549 57.9728235 58.4854141 60.0316471 56.4978085 60.0316471 60.3854704 49.7975294zM72.9310479 51.4057647L71.5136958 52.6481176C71.0179775 51.9622353 70.5116113 51.6187059 69.9969634 51.6187059 69.7449634 51.6187059 69.5402873 51.6857647 69.3817521 51.8187059 69.2208507 51.9528235 69.1404 52.1034118 69.1404 52.2704706 69.1404 52.4363529 69.1971887 52.5963529 69.3107662 52.7457647 69.4669352 52.9445882 69.9354423 53.3704706 70.7162873 54.0269412 71.4462592 54.634 71.888738 55.0163529 72.044907 55.174 72.4317803 55.5634118 72.7074423 55.934 72.8707099 56.2881176 73.0304282 56.6457647 73.112062 57.0328235 73.112062 57.4516471 73.112062 58.2728235 72.8281183 58.9469412 72.2578648 59.4822353 71.6887944 60.0151765 70.9446254 60.2822353 70.0265408 60.2822353 69.3107662 60.2822353 68.6896394 60.1081176 68.1572451 59.7610588 67.6260338 59.4104706 67.1693577 58.8634118 66.7919493 58.1175294L68.4021465 57.1528235C68.8872169 58.034 69.4444563 58.474 70.0726817 58.474 70.4015831 58.474 70.6796113 58.3787059 70.9032169 58.1892941 71.1268225 57.9987059 71.2392169 57.7787059 71.2392169 57.5316471 71.2392169 57.3069412 71.1552169 57.0787059 70.9848507 56.8516471 70.8168507 56.6269412 70.4441746 56.2798824 69.8680056 55.814 68.7724563 54.9281176 68.0673296 54.2445882 67.747893 53.7622353 67.4284563 53.2810588 67.2675549 52.8010588 67.2675549 52.3210588 67.2675549 51.6281176 67.5337521 51.0351765 68.0625972 50.5410588 68.5926254 50.0445882 69.248062 49.7975294 70.0265408 49.7975294 70.5281746 49.7975294 71.0061465 49.9128235 71.4580901 50.1422353 71.9124 50.374 72.4022028 50.7928235 72.9310479 51.4057647"/>
    <mask id="logo-d" fill="#fff">
      <use xlink:href="#logo-c"/>
    </mask>
    <polygon fill="#93C300" points="50.485 100 56.498 100 56.498 33.828 50.485 33.828" mask="url(#logo-d)"/>
    <path fill="#FEFEFE" d="M51.8524901,95.8990588 L52.594293,95.8990588 L54.3642085,98.5872941 L54.3642085,95.8990588 L55.1415042,95.8990588 L55.1415042,99.9837647 L54.3937859,99.9837647 L52.630969,97.3049412 L52.630969,99.9837647 L51.8524901,99.9837647 L51.8524901,95.8990588 Z M53.4969972,90.0884706 L52.9397577,91.4943529 L54.0506873,91.4943529 L53.4969972,90.0884706 Z M53.1030254,89.0025882 L53.8897859,89.0025882 L55.4715887,93.0872941 L54.6576169,93.0872941 L54.3369972,92.2449412 L52.6534479,92.2449412 L52.3257296,93.0872941 L51.5117577,93.0872941 L53.1030254,89.0025882 Z M52.3612225,82.1061176 L54.6327718,82.1061176 L54.6327718,82.8743529 L53.8826873,82.8743529 L53.8826873,86.1908235 L53.0876451,86.1908235 L53.0876451,82.8743529 L52.3612225,82.8743529 L52.3612225,82.1061176 Z M54.6327718,75.7649412 L54.0518704,76.2731765 C53.8495606,75.9931765 53.6425183,75.852 53.4307437,75.852 C53.3289972,75.852 53.2449972,75.8802353 53.1799268,75.9343529 C53.1136732,75.9884706 53.0817296,76.0508235 53.0817296,76.1190588 C53.0817296,76.1872941 53.1042085,76.2531765 53.1515324,76.3131765 C53.2154197,76.3943529 53.4058986,76.5696471 53.7265183,76.8378824 C54.0246592,77.0861176 54.2056732,77.2425882 54.2695606,77.3072941 C54.4280958,77.4661176 54.5404901,77.6178824 54.6079268,77.7625882 C54.6729972,77.9084706 54.7061239,78.0672941 54.7061239,78.2390588 C54.7061239,78.5743529 54.5901803,78.8496471 54.3571099,79.0696471 C54.1240394,79.2872941 53.8199831,79.3967059 53.4437577,79.3967059 C53.1515324,79.3967059 52.8971662,79.3261176 52.6794761,79.1837647 C52.4617859,79.0402353 52.2748563,78.8155294 52.1210535,78.5108235 L52.7800394,78.1167059 C52.9776169,78.4767059 53.2059549,78.6567059 53.4626873,78.6567059 C53.5975606,78.6567059 53.711138,78.6178824 53.8022366,78.5402353 C53.8945183,78.4625882 53.9394761,78.3731765 53.9394761,78.2708235 C53.9394761,78.1790588 53.9051662,78.0861176 53.8365465,77.9931765 C53.7667437,77.9014118 53.6141239,77.7590588 53.3798704,77.5684706 C52.9314761,77.2061176 52.6416169,76.9272941 52.5114761,76.7296471 C52.3813352,76.532 52.3150817,76.3367059 52.3150817,76.1402353 C52.3150817,75.8555294 52.4239268,75.6131765 52.6404338,75.4108235 C52.8581239,75.2096471 53.1255042,75.1072941 53.4437577,75.1072941 C53.6496169,75.1072941 53.8448282,75.1543529 54.0293915,75.2484706 C54.215138,75.3437647 54.4162648,75.5155294 54.6327718,75.7649412 L54.6327718,75.7649412 Z M52.0110254,68.3131765 L52.8072507,68.3131765 L52.8072507,69.8543529 L54.1796451,69.8543529 L54.1796451,68.3131765 L54.9687718,68.3131765 L54.9687718,72.3978824 L54.1796451,72.3978824 L54.1796451,70.6049412 L52.8072507,70.6049412 L52.8072507,72.3978824 L52.0110254,72.3978824 L52.0110254,68.3131765 Z M52.1944056,61.4167059 L52.9835324,61.4167059 L52.9835324,62.8296471 L54.0956451,61.4167059 L55.0385746,61.4167059 L53.6034761,63.2390588 L55.1781803,65.5014118 L54.2494479,65.5014118 L52.9835324,63.6814118 L52.9835324,65.5014118 L52.1944056,65.5014118 L52.1944056,61.4167059 Z M53.4969972,55.6061176 L52.9397577,57.012 L54.0506873,57.012 L53.4969972,55.6061176 Z M53.1030254,54.5202353 L53.8897859,54.5202353 L55.4715887,58.6049412 L54.6576169,58.6049412 L54.3369972,57.7625882 L52.6534479,57.7625882 L52.3257296,58.6049412 L51.5117577,58.6049412 L53.1030254,54.5202353 Z M52.3150817,47.6237647 L54.803138,47.6237647 L53.3372789,50.9567059 L54.7061239,50.9567059 L54.7061239,51.7072941 L52.1944056,51.7072941 L53.6531662,48.392 L52.3150817,48.392 L52.3150817,47.6237647 Z M53.4969972,41.8131765 L52.9397577,43.2190588 L54.0506873,43.2190588 L53.4969972,41.8131765 Z M53.1030254,40.7272941 L53.8897859,40.7272941 L55.4715887,44.812 L54.6576169,44.812 L54.3369972,43.9696471 L52.6534479,43.9696471 L52.3257296,44.812 L51.5117577,44.812 L53.1030254,40.7272941 Z M52.1944056,33.8308235 L52.9835324,33.8308235 L52.9835324,35.2425882 L54.0956451,33.8308235 L55.0385746,33.8308235 L53.6034761,35.6543529 L55.1781803,37.9143529 L54.2494479,37.9143529 L52.9835324,36.0955294 L52.9835324,37.9143529 L52.1944056,37.9143529 L52.1944056,33.8308235 Z" mask="url(#logo-d)"/>
  </g>
</svg>
