<svg xmlns="http://www.w3.org/2000/svg" xmlns:xlink="http://www.w3.org/1999/xlink" width="8" height="12" viewBox="0 0 8 12">
  <defs>
    <path id="phone-a" d="M11.5,11.5 L11.5,3 C11.5,2.73807119 11.2619288,2.5 11,2.5 L5,2.5 C4.73807119,2.5 4.5,2.73807119 4.5,3 L4.5,11.5 L11.5,11.5 Z M11.5,12 L4.5,12 L4.5,13 C4.5,13.2619288 4.73807119,13.5 5,13.5 L11,13.5 C11.2619288,13.5 11.5,13.2619288 11.5,13 L11.5,12 Z M5,2 L11,2 C11.5380712,2 12,2.46192881 12,3 L12,13 C12,13.5380712 11.5380712,14 11,14 L5,14 C4.46192881,14 4,13.5380712 4,13 L4,3 C4,2.46192881 4.46192881,2 5,2 Z M7.75,3.5 C7.61192881,3.5 7.5,3.38807119 7.5,3.25 C7.5,3.11192881 7.61192881,3 7.75,3 L8.25,3 C8.38807119,3 8.5,3.11192881 8.5,3.25 C8.5,3.38807119 8.38807119,3.5 8.25,3.5 L7.75,3.5 Z M7.25,13 C7.11192881,13 7,12.8880712 7,12.75 C7,12.6119288 7.11192881,12.5 7.25,12.5 L8.75,12.5 C8.88807119,12.5 9,12.6119288 9,12.75 C9,12.8880712 8.88807119,13 8.75,13 L7.25,13 Z M10.75,3.5 C10.6119288,3.5 10.5,3.38807119 10.5,3.25 C10.5,3.11192881 10.6119288,3 10.75,3 C10.8880712,3 11,3.11192881 11,3.25 C11,3.38807119 10.8880712,3.5 10.75,3.5 Z"/>
  </defs>
  <g fill="none" fill-rule="evenodd" transform="translate(-4 -2)">
    <rect width="16" height="16"/>
    <mask id="phone-b" fill="#fff">
      <use xlink:href="#phone-a"/>
    </mask>
    <use fill="#303C42" fill-rule="nonzero" xlink:href="#phone-a"/>
    <g fill="#007EB1" mask="url(#phone-b)">
      <rect width="16" height="16"/>
    </g>
  </g>
</svg>
