<svg xmlns="http://www.w3.org/2000/svg" xmlns:xlink="http://www.w3.org/1999/xlink" width="54" height="48" viewBox="0 0 54 48">
  <defs>
    <path id="service-a" d="M43.6702917,27.7390762 L48.6447347,29.5767695 C48.7577263,29.6185221 48.8731914,29.6382997 48.9867452,29.6382997 C49.40161,29.6382997 49.7908409,29.3736737 49.9391354,28.9489767 L51.1414564,25.5046752 C51.2321871,25.2447912 51.2188079,24.9585371 51.1043547,24.7089467 C50.9899015,24.4592406 50.7837058,24.266554 50.5311892,24.1732178 L45.5567462,22.3355245 C45.0305762,22.1408717 44.451227,22.4223838 44.2624578,22.9633173 L43.0601368,26.4076188 C42.9694062,26.6675028 42.9827853,26.9537569 43.0972386,27.2033473 C43.2115794,27.4530534 43.4177751,27.64574 43.6702917,27.7390762 Z M43.3196241,36.7173918 L59.0822392,52.9316322 C59.2720202,53.1268633 59.3786033,53.3916049 59.3786033,53.6676811 C59.3786033,53.9437572 59.2720202,54.2084989 59.0822392,54.4037299 L55.5586988,58.0284583 C55.3610478,58.2316698 55.1021227,58.3333333 54.8431975,58.3333333 C54.5842724,58.3333333 54.3252349,58.2316698 54.1276962,58.0284583 L38.3656433,41.8137553 L23.693257,56.9074989 C22.946163,57.6760477 21.964766,58.06038 20.9833689,58.06038 C20.0018595,58.06038 19.0204624,57.6761634 18.2733684,56.9074989 C17.5495473,56.1628913 17.1508723,55.172857 17.1508723,54.119789 C17.1508723,53.0666053 17.5495473,52.076571 18.2733684,51.3319635 L32.9459795,36.2382199 L24.0153675,27.0511411 L23.4567054,27.6258468 C23.0655632,28.0282217 22.4326975,28.0329637 22.0360463,27.636256 C21.6781832,27.2785252 20.8925259,27.4503933 20.3546632,28.0037021 C19.8166881,28.5571267 19.6497303,29.3653463 19.9974747,29.7334864 C20.3829954,30.1416442 20.3783858,30.7925686 19.9872436,31.1949435 L16.9969564,34.271105 C16.7993053,34.4743165 16.5403802,34.57598 16.2814551,34.57598 C16.0225299,34.57598 15.7634924,34.4743165 15.5659538,34.271105 L9.04639225,27.5643166 C8.65120258,27.157778 8.65120258,26.4987575 9.04639225,26.0922189 L12.0366795,23.0161731 C12.428946,22.6125259 13.0641727,22.6091718 13.4604866,23.0088866 C13.8179,23.3692776 14.6045692,23.1985661 15.1440059,22.643638 C15.6834426,22.0887099 15.8493885,21.2794494 15.4990582,20.9117719 C15.1105019,20.5040767 15.1137623,19.8507235 15.5061413,19.4470763 L21.6503007,13.126355 C22.0454904,12.7198164 22.6861136,12.7198164 23.0813033,13.126355 L23.6337818,13.6946995 C26.3055563,11.5249514 30.0072974,11.0364111 33.145317,12.5194964 C34.443428,13.1320223 35.554906,14.0212026 36.4483831,15.1619396 C36.7154032,15.5029 36.7464337,15.9791805 36.5261844,16.3537974 C36.305935,16.72853 35.8810639,16.9213323 35.4638381,16.8360922 C33.5710875,16.4501407 30.9681199,16.5769021 28.9333709,19.1464806 L29.6008648,19.8331434 C29.9960545,20.239682 29.9960545,20.8987025 29.6008648,21.3052411 L28.9692359,21.955009 L37.8526275,31.092586 C39.4139359,29.150222 40.4661635,26.8422624 40.9155442,24.3401126 L41.8760294,18.9931178 C41.9302204,18.6911342 42.1114568,18.4291684 42.3710565,18.2773092 C42.6306562,18.1255656 42.9421983,18.0994268 43.2222602,18.2060637 L47.3962051,19.7955545 C48.3780519,16.4553453 51.1578712,13.9670746 54.5784261,13.4734453 C54.9306677,13.4224401 55.2830217,13.5657406 55.5064191,13.8504911 C55.7298165,14.1352416 55.7914279,14.5196895 55.6687673,14.8631944 L53.127411,21.978025 L54.9308925,22.6648034 L57.3475645,15.967499 C57.4713494,15.6244568 57.7610802,15.3734784 58.1107359,15.3063967 C58.4603917,15.2390836 58.8187045,15.3660763 59.0542442,15.6401863 C62.1208711,19.2080108 61.9563868,24.6432528 58.6796292,28.0141114 C58.1197303,28.5902049 57.5855778,29.0228823 57.0464783,29.3371257 C56.6440932,29.5716805 54.8430851,30.3706474 54.8430851,30.3706474 L48.2112065,33.2402433 C46.4801296,33.9892459 44.9291647,35.0616289 43.60126,36.427668 L43.3196241,36.7173918 Z M53.089185,16.0491537 C51.2575961,16.8717149 49.8559376,18.5018017 49.3007608,20.5207315 L51.2296012,21.2552768 L53.089185,16.0491537 Z M32.301084,14.4114334 C29.9279222,13.2898957 27.1423691,13.6152423 25.077489,15.1797509 L27.4975338,17.6692939 C28.9186426,15.9489937 30.7214496,14.9247246 32.7772229,14.6580167 C32.622295,14.5703478 32.463657,14.4881148 32.301084,14.4114334 Z M22.3659144,15.334386 L17.7610272,20.071515 L22.8495861,25.3062057 L27.4544733,20.5690766 L22.3659144,15.334386 Z M16.2814551,32.0629584 L17.8407397,30.4588947 L12.7521808,25.224204 L11.1928962,26.8282677 L16.2814551,32.0629584 Z M18.9235482,26.5316044 C19.3322294,26.1113025 19.7979124,25.8030733 20.2812467,25.6083049 L17.4729828,22.7193941 C17.2834267,23.2162618 16.9835773,23.6950868 16.5747836,24.11562 C16.2091629,24.4917405 15.7977834,24.7767224 15.369427,24.9726474 L18.0907829,27.7720387 C18.281126,27.331034 18.5580399,26.9076093 18.9235482,26.5316044 Z M25.4461453,25.5790434 L34.3767573,34.7661221 L36.469295,32.6134915 L27.5382333,23.4268754 L25.4461453,25.5790434 Z M45.825003,24.6466069 L48.8947779,25.7806357 L48.3763655,27.2655714 L45.3065906,26.1315427 L45.825003,24.6466069 Z M21.1254798,55.1050813 C20.5395694,55.1050813 20.0645951,54.6164669 20.0645951,54.0137304 C20.0645951,53.410994 20.5395694,52.9223795 21.1254798,52.9223795 C21.7113903,52.9223795 22.1863645,53.410994 22.1863645,54.0137304 C22.1863645,54.6164669 21.7113903,55.1050813 21.1254798,55.1050813 Z M22.2622544,55.4354012 L42.170145,34.9555703 C43.684233,33.3980011 45.4526365,32.1752625 47.4264487,31.3212423 L53.9293706,28.5075093 C53.9293706,28.5075093 55.8135765,27.6629731 56.0485542,27.5259181 C56.4268794,27.3053579 56.8194832,26.9835967 57.2486266,26.5421293 C59.3242999,24.4068474 59.7779529,21.1955972 58.5579805,18.5953692 L56.4763484,24.3642852 C56.2819578,24.9029055 55.7000227,25.1778251 55.1764386,24.9783146 L43.6476934,20.5878133 L42.9056587,24.718315 C42.29764,28.1032839 40.7256508,31.179214 38.3594597,33.6132411 L19.704371,52.8040612 C18.9992132,53.5294695 18.9992132,54.7098772 19.704371,55.4354012 C20.0459318,55.7868865 20.500147,55.9803827 20.9832565,55.9803827 C21.466366,55.9803827 21.9205812,55.7868865 22.2622544,55.4354012 Z M54.8431975,55.8203117 L56.9357353,53.6677967 L41.8886215,38.1896052 L39.7966459,40.3416576 L54.8431975,55.8203117 Z"/>
  </defs>
  <g fill="none" fill-rule="evenodd" transform="translate(-8 -11)">
    <rect width="70" height="70"/>
    <mask id="service-b" fill="#fff">
      <use xlink:href="#service-a"/>
    </mask>
    <use fill="#000" fill-rule="nonzero" xlink:href="#service-a"/>
    <g fill="#007EB1" mask="url(#service-b)">
      <rect width="70" height="70"/>
    </g>
  </g>
</svg>
