<svg xmlns="http://www.w3.org/2000/svg" xmlns:xlink="http://www.w3.org/1999/xlink"><defs><path id="phone-a" d="M11.5 11.5V3a.52.52 0 0 0-.5-.5H5a.52.52 0 0 0-.5.5v8.5h7zm0 .5h-7v1c0 .262.238.5.5.5h6a.52.52 0 0 0 .5-.5v-1zM5 2h6c.538 0 1 .462 1 1v10c0 .538-.462 1-1 1H5c-.538 0-1-.462-1-1V3c0-.538.462-1 1-1zm2.75 1.5a.25.25 0 1 1 0-.5h.5a.25.25 0 1 1 0 .5h-.5zm-.5 9.5a.25.25 0 1 1 0-.5h1.5a.25.25 0 1 1 0 .5h-1.5zm3.5-9.5a.25.25 0 1 1 0-.5.25.25 0 0 1 0 .5z"/></defs><symbol id="phone" viewBox="0 0 8 12"><g fill-rule="evenodd" transform="translate(-4 -2)"><path d="M0 0h16v16H0z"/><mask id="phone-b"><use xlink:href="#phone-a"/></mask><use fill-rule="nonzero" xlink:href="#phone-a"/><g mask="url(#phone-b)"><path d="M0 0h16v16H0z"/></g></g></symbol></svg>